<svg width="18" height="17" viewBox="0 0 18 17" fill="none" xmlns="http://www.w3.org/2000/svg">
<path fill-rule="evenodd" clip-rule="evenodd" d="M1.5 4.95842C1.5 3.00241 3.17893 1.41675 5.25 1.41675H12.75C14.8211 1.41675 16.5 3.00241 16.5 4.95842V12.0417C16.5 13.9978 14.8211 15.5834 12.75 15.5834H5.25C3.17893 15.5834 1.5 13.9978 1.5 12.0417V4.95842ZM5.25 2.83341C4.00736 2.83341 3 3.78481 3 4.95842V12.0417C3 13.2154 4.00736 14.1667 5.25 14.1667H12.75C13.9926 14.1667 15 13.2154 15 12.0417V4.95842C15 3.78481 13.9926 2.83341 12.75 2.83341H5.25Z" fill="white"/>
<path fill-rule="evenodd" clip-rule="evenodd" d="M9 4.95825C9.41421 4.95825 9.75 5.27538 9.75 5.66659V7.79159H12C12.4142 7.79159 12.75 8.10872 12.75 8.49992C12.75 8.89112 12.4142 9.20825 12 9.20825H9.75L9.75 11.3333C9.75 11.7245 9.41421 12.0416 9 12.0416C8.58579 12.0416 8.25 11.7245 8.25 11.3333L8.25 9.20825H6C5.58579 9.20825 5.25 8.89112 5.25 8.49992C5.25 8.10872 5.58579 7.79159 6 7.79159H8.25V5.66659C8.25 5.27538 8.58579 4.95825 9 4.95825Z" fill="white"/>
</svg>
