<svg width="32" height="29" viewBox="0 0 32 29" fill="none" xmlns="http://www.w3.org/2000/svg">
<path d="M8.92416 6.90679C11.2458 2.97379 12.4066 1.00728 13.9387 0.377395C15.1625 -0.125798 16.542 -0.125798 17.7659 0.377395C19.298 1.00728 20.4588 2.97379 22.7804 6.90679L28.4066 16.4378C30.7282 20.3709 31.889 22.3374 31.6807 23.95C31.5143 25.2383 30.8246 26.4067 29.7671 27.1918C28.4433 28.1746 26.1217 28.1746 21.4784 28.1746H10.2262C5.58288 28.1746 3.26125 28.1746 1.9375 27.1918C0.880002 26.4067 0.190255 25.2383 0.0238589 23.95C-0.184432 22.3374 0.976387 20.3709 3.29802 16.4378L8.92416 6.90679Z" fill="white"/>
<rect x="13.8711" y="4.02466" width="3.25572" height="13.4642" rx="1.62786" fill="#FFAA9F"/>
<rect x="13.8711" y="20.1243" width="3.81565" height="3.75569" rx="1.87785" fill="#FFAA9F"/>
</svg>
