<svg width="26" height="26" viewBox="0 0 26 26" fill="none" xmlns="http://www.w3.org/2000/svg">
<path d="M18.3029 7.06224L21.3503 4.0159L19.8185 2.48407L16.7353 5.56724C16.4851 5.3865 16.2235 5.22221 15.952 5.0754C15.0439 4.58968 14.0299 4.33555 13 4.33555C11.97 4.33555 10.9561 4.58968 10.0479 5.0754C9.77704 5.2184 9.51921 5.38632 9.26571 5.56615L6.18254 2.48407L4.65071 4.0159L7.69813 7.06224C7.06368 7.87002 6.56931 8.77855 6.23563 9.74999H2.16663V11.9167H4.66588C4.59546 12.4529 4.54996 12.9967 4.54996 13.5417C4.54996 14.0909 4.59546 14.6391 4.66588 15.1786H2.16663V17.3452H5.14904C5.16313 17.3875 5.17179 17.4319 5.18588 17.4731C5.38954 18.0743 5.64196 18.6572 5.93879 19.2064C5.98646 19.2942 6.04171 19.3743 6.09154 19.4599L3.56738 21.9841L5.09921 23.5159L7.38504 21.229C8.02249 21.9412 8.78096 22.535 9.62538 22.9829C10.1443 23.257 10.6892 23.4693 11.246 23.6112C12.3963 23.9066 13.6024 23.907 14.7528 23.6123C15.3159 23.4675 15.8599 23.2565 16.3735 22.984C16.8772 22.7175 17.3636 22.3882 17.8175 22.0047C18.097 21.7685 18.3592 21.5042 18.6127 21.229L20.8996 23.5159L22.4315 21.9841L19.9073 19.4599C19.9582 19.3732 20.0135 19.292 20.0611 19.2042C20.3569 18.6572 20.6104 18.0743 20.813 17.472C20.827 17.4297 20.8357 17.3864 20.8498 17.3442H23.8333V15.1775H21.333C21.4034 14.6369 21.4489 14.0898 21.4489 13.5406C21.4489 12.9957 21.4034 12.4518 21.334 11.9156H23.8333V9.74999H19.7643C19.4305 8.7788 18.9366 7.87033 18.3029 7.06224ZM9.40438 8.39365C9.88646 7.78915 10.4444 7.3179 11.0597 6.99182C11.6557 6.67048 12.3223 6.50225 12.9994 6.50225C13.6766 6.50225 14.3431 6.67048 14.9391 6.99182C15.5825 7.34009 16.1468 7.81775 16.5966 8.39474C16.9205 8.79882 17.1816 9.2614 17.4124 9.74999H8.58754C8.81938 9.2614 9.07938 8.79774 9.40438 8.39365ZM19.2833 13.5417C19.2833 14.1072 19.2378 14.6727 19.1468 15.2241C19.0612 15.7549 18.9312 16.2782 18.7622 16.7797C18.6002 17.2612 18.3976 17.7279 18.1566 18.1751C17.9276 18.5984 17.6619 19.0007 17.3625 19.3776C17.0733 19.7383 16.7559 20.0666 16.4211 20.3504C16.0853 20.6332 15.7289 20.8747 15.3605 21.0697C14.9922 21.2647 14.6076 21.4132 14.2155 21.5139C14.1721 21.5247 14.1266 21.5291 14.0833 21.5388V15.1667H11.9166V21.5377C11.8733 21.528 11.8278 21.5237 11.7845 21.5128C11.3934 21.4121 11.0077 21.2637 10.6394 21.0687C10.271 20.8737 9.91463 20.6321 9.57988 20.3493C9.23457 20.056 8.91856 19.7298 8.63629 19.3754C8.3369 18.9998 8.07187 18.5981 7.84438 18.1751C7.60321 17.7275 7.40027 17.2604 7.23771 16.7787C7.06691 16.2708 6.93793 15.7497 6.85204 15.2208C6.674 14.1268 6.6718 13.0114 6.84554 11.9167H19.1533C19.2389 12.4486 19.2833 12.9946 19.2833 13.5417Z" fill="black"/>
</svg>
