<svg width="44" height="44" viewBox="0 0 44 44" fill="none" xmlns="http://www.w3.org/2000/svg">
<path d="M12.1 33C12.7075 33 13.2 32.5075 13.2 31.9C13.2 31.2925 12.7075 30.8 12.1 30.8C11.4925 30.8 11 31.2925 11 31.9C11 32.5075 11.4925 33 12.1 33Z" fill="white"/>
<path fill-rule="evenodd" clip-rule="evenodd" d="M15.4 2.20001H28.6V6.60001H25.85V8.25001H39.6V15.4L41.0058 17.5087C41.8393 18.3946 42.35 19.5877 42.35 20.9C42.35 22.366 41.7127 23.6832 40.7 24.5896V41.8H3.30002V24.5896C2.28734 23.6832 1.65002 22.366 1.65002 20.9C1.65002 19.5877 2.16071 18.3946 2.9942 17.5087L4.40002 15.4V8.25001H18.15V6.60001H15.4V2.20001ZM16.5 3.30001H27.5V5.50001H16.5V3.30001ZM24.75 8.25001V6.60001H19.25V8.25001H24.75ZM38.5 9.35001H5.50002V15.4H38.5V9.35001ZM4.98873 16.5H39.0113L40.1416 18.1955L40.2047 18.2625C40.8539 18.9525 41.25 19.8788 41.25 20.9C41.25 23.0263 39.5263 24.75 37.4 24.75C36.191 24.75 35.1127 24.194 34.4051 23.3196L33.55 22.2629L32.6949 23.3196C31.9873 24.194 30.909 24.75 29.7 24.75C28.491 24.75 27.4127 24.194 26.7051 23.3196L25.85 22.2629L24.9949 23.3196C24.2873 24.194 23.209 24.75 22 24.75C20.791 24.75 19.7127 24.194 19.0051 23.3196L18.15 22.2629L17.2949 23.3196C16.5873 24.194 15.509 24.75 14.3 24.75C13.091 24.75 12.0127 24.194 11.3051 23.3196L10.45 22.2629L9.59492 23.3196C8.88732 24.194 7.809 24.75 6.60002 24.75C4.47373 24.75 2.75002 23.0263 2.75002 20.9C2.75002 19.8788 3.14618 18.9525 3.79535 18.2625L3.85841 18.1955L4.98873 16.5ZM34.3357 24.7877C35.0431 25.3461 35.9066 25.7155 36.85 25.8198V33.55H20.35V25.5683C20.8661 25.7508 21.4215 25.85 22 25.85C23.1571 25.85 24.2215 25.453 25.0644 24.7877C25.3542 24.559 25.6178 24.2985 25.85 24.0115C26.0822 24.2985 26.3459 24.559 26.6357 24.7877C27.4785 25.453 28.5429 25.85 29.7 25.85C30.8571 25.85 31.9215 25.453 32.7644 24.7877C33.0542 24.559 33.3178 24.2985 33.55 24.0115C33.7822 24.2985 34.0459 24.559 34.3357 24.7877ZM18.9357 24.7877C19.0373 24.868 19.1422 24.9443 19.25 25.0165V34.65H37.95V25.8198C38.5371 25.7549 39.0932 25.5873 39.6 25.3355V40.7H15.4V25.7274C16.129 25.5619 16.7969 25.2356 17.3644 24.7877C17.6542 24.559 17.9178 24.2985 18.15 24.0115C18.3822 24.2985 18.6459 24.559 18.9357 24.7877ZM14.3 38.5V25.85C13.1429 25.85 12.0785 25.453 11.2357 24.7877C10.9459 24.559 10.6822 24.2985 10.45 24.0115C10.2178 24.2985 9.95418 24.559 9.66435 24.7877C8.8215 25.453 7.75713 25.85 6.60002 25.85V38.5H14.3ZM6.60002 39.6V40.7H14.3V39.6H6.60002ZM5.50002 25.7274C5.11431 25.6398 4.7457 25.5073 4.40002 25.3355V40.7H5.50002V25.7274Z" fill="white"/>
</svg>
