<svg width="30" height="30" viewBox="0 0 30 30" fill="none" xmlns="http://www.w3.org/2000/svg">
<path d="M10 12.5C10 12.1685 10.1317 11.8506 10.3661 11.6162C10.6005 11.3817 10.9185 11.25 11.25 11.25H18.75C19.0815 11.25 19.3995 11.3817 19.6339 11.6162C19.8683 11.8506 20 12.1685 20 12.5C20 12.8316 19.8683 13.1495 19.6339 13.3839C19.3995 13.6183 19.0815 13.75 18.75 13.75H11.25C10.9185 13.75 10.6005 13.6183 10.3661 13.3839C10.1317 13.1495 10 12.8316 10 12.5ZM11.25 16.25C10.9185 16.25 10.6005 16.3817 10.3661 16.6162C10.1317 16.8506 10 17.1685 10 17.5C10 17.8316 10.1317 18.1495 10.3661 18.3839C10.6005 18.6183 10.9185 18.75 11.25 18.75H16.25C16.5815 18.75 16.8995 18.6183 17.1339 18.3839C17.3683 18.1495 17.5 17.8316 17.5 17.5C17.5 17.1685 17.3683 16.8506 17.1339 16.6162C16.8995 16.3817 16.5815 16.25 16.25 16.25H11.25ZM8.67271e-06 15C0.000646565 11.6977 1.09107 8.48778 3.10213 5.86836C5.11319 3.24893 7.93247 1.36638 11.1226 0.512739C14.3128 -0.340905 17.6954 -0.117923 20.7459 1.14709C23.7964 2.41211 26.3442 4.64845 27.994 7.50919C29.6438 10.3699 30.3035 13.6952 29.8706 16.9691C29.4377 20.243 27.9366 23.2825 25.6 25.6162C23.2634 27.9498 20.222 29.4472 16.9475 29.876C13.6731 30.3047 10.3487 29.6409 7.49001 27.9875L1.64501 29.9375C1.42906 30.0096 1.19753 30.0214 0.975395 29.9715C0.753259 29.9217 0.548957 29.8121 0.38454 29.6546C0.220122 29.4972 0.101832 29.2978 0.0424365 29.078C-0.0169594 28.8582 -0.0152056 28.6264 0.0475088 28.4075L1.82751 22.18C0.625049 19.9781 -0.00344921 17.5089 8.67271e-06 15ZM15 2.50004C12.793 2.4999 10.6252 3.08412 8.71715 4.1933C6.80907 5.30249 5.22868 6.8971 4.13664 8.81504C3.04459 10.733 2.47982 12.9059 2.49973 15.1128C2.51964 17.3198 3.12353 19.4821 4.25001 21.38C4.33668 21.5266 4.39247 21.6894 4.41397 21.8584C4.43546 22.0273 4.42221 22.1989 4.37501 22.3625L3.10251 26.8125L7.24751 25.4325C7.42354 25.3738 7.61045 25.355 7.79467 25.3775C7.97888 25.4 8.15577 25.4632 8.31251 25.5625C9.95068 26.5993 11.8075 27.2408 13.7363 27.4363C15.6651 27.6318 17.6129 27.3761 19.4258 26.6892C21.2388 26.0023 22.8671 24.9032 24.182 23.4786C25.497 22.0541 26.4626 20.3433 27.0025 18.4813C27.5425 16.6193 27.6419 14.6573 27.293 12.7503C26.944 10.8433 26.1563 9.04356 24.9921 7.4934C23.8279 5.94324 22.319 4.68512 20.5849 3.8185C18.8507 2.95187 16.9387 2.50049 15 2.50004Z" fill="black"/>
</svg>
