<svg width="35" height="28" viewBox="0 0 35 28" fill="none" xmlns="http://www.w3.org/2000/svg">
<path fill-rule="evenodd" clip-rule="evenodd" d="M24.3414 7.23943C23.2564 6.35424 22.0193 6.06635 20.8533 6.13463C19.7421 6.19972 18.7664 6.58188 18.0813 6.92956C17.7494 7.098 17.2506 7.098 16.9187 6.92956C16.2336 6.58188 15.2579 6.19972 14.1467 6.13464C12.9807 6.06636 11.7436 6.35425 10.6586 7.23944C9.38308 8.28005 8.99051 9.56689 9.14749 10.8363C9.30116 12.0788 9.97665 13.3155 10.8479 14.3887C11.7236 15.4674 12.8421 16.4367 13.9723 17.1449C15.0549 17.8232 16.3284 18.375 17.5 18.375C18.6717 18.375 19.9452 17.8232 21.0277 17.1449C22.1579 16.4367 23.2764 15.4674 24.1521 14.3887C25.0234 13.3155 25.6988 12.0788 25.8525 10.8363C26.0095 9.56689 25.6169 8.28005 24.3414 7.23943ZM19.253 8.40732C19.7883 8.13569 20.4083 7.91538 21.013 7.87996C21.5631 7.84775 22.1625 7.96132 22.7795 8.46469C23.5241 9.07218 23.7806 9.81538 23.6756 10.664C23.5674 11.5394 23.07 12.5087 22.3176 13.4355C21.5697 14.3568 20.6137 15.1814 19.6789 15.7672C18.6964 16.3828 17.9144 16.625 17.5 16.625C17.0857 16.625 16.3036 16.3828 15.3211 15.7672C14.3863 15.1814 13.4303 14.3567 12.6824 13.4355C11.93 12.5087 11.4326 11.5394 11.3244 10.664C11.2194 9.81538 11.4759 9.07218 12.2205 8.46469C12.8375 7.96133 13.4369 7.84776 13.9869 7.87997C14.5917 7.91539 15.2117 8.13569 15.7469 8.40732C16.7941 8.93875 18.2058 8.93875 19.253 8.40732Z" fill="#F90F0F"/>
<path fill-rule="evenodd" clip-rule="evenodd" d="M23.8365 1.54069C22.576 1.4583 21.0077 1.45831 19.0073 1.45831H15.9927C13.9923 1.45831 12.424 1.4583 11.1634 1.54069C9.87991 1.62459 8.81954 1.79825 7.85977 2.18948C6.28195 2.83263 4.99914 3.85887 4.19521 5.12113C3.70618 5.88895 3.4891 6.73724 3.38423 7.76407C3.28124 8.77248 3.28124 10.0272 3.28125 11.6275V16.5997C3.28125 19.5132 6.23352 21.875 9.87533 21.875H10.7529C11.1153 21.875 11.3631 22.1678 11.2285 22.437C10.2271 24.4397 13.1103 26.2504 15.3043 24.9966L19.1117 22.821L19.1833 22.7802C20.2171 22.1974 21.449 21.8816 22.7137 21.8751L22.8234 21.875H22.865C23.2806 21.875 23.5314 21.875 23.7299 21.8675C28.0493 21.7039 31.5049 18.9394 31.7094 15.4839C31.7188 15.3251 31.7188 15.1429 31.7187 14.8437V11.6275C31.7188 10.0272 31.7188 8.77246 31.6158 7.76407C31.5109 6.73724 31.2938 5.88895 30.8048 5.12113C30.0009 3.85887 28.718 2.83263 27.1402 2.18948C26.1805 1.79825 25.1201 1.62459 23.8365 1.54069ZM8.85287 3.74874C9.45287 3.50417 10.1933 3.35994 11.3416 3.28488C12.5026 3.20899 13.9818 3.20831 16.0417 3.20831H18.9583C21.0182 3.20831 22.4974 3.20899 23.6584 3.28488C24.8067 3.35994 25.5471 3.50417 26.1471 3.74874C27.3133 4.22411 28.2615 4.98264 28.8557 5.91561C29.1614 6.39561 29.3417 6.98797 29.4355 7.90658C29.5304 8.8354 29.5312 10.0187 29.5312 11.6666V14.8153C29.5312 15.1515 29.5309 15.2892 29.5243 15.4011C29.3732 17.9552 26.819 19.9985 23.6264 20.1194C23.4868 20.1247 23.2926 20.125 22.8234 20.125L22.6997 20.1251C20.9887 20.1339 19.3219 20.5612 17.9233 21.3497L17.8402 21.3969L14.0329 23.5726C13.6166 23.8104 13.0695 23.4669 13.2595 23.0869C13.9689 21.6682 12.6629 20.125 10.7529 20.125H9.87533C7.44164 20.125 5.46875 18.5467 5.46875 16.5997V11.6666C5.46875 10.0187 5.4696 8.8354 5.56446 7.90658C5.65828 6.98797 5.83857 6.39561 6.14428 5.91561C6.7385 4.98264 7.68666 4.22411 8.85287 3.74874Z" fill="#F90F0F"/>
</svg>
