<svg width="35" height="40" viewBox="0 0 35 40" fill="none" xmlns="http://www.w3.org/2000/svg">
<path d="M17.5 36.0853C23.7118 36.0853 28.7083 30.9387 28.7083 24.6389C28.7083 20.5482 26.7699 16.4116 24.6371 13.0749C22.4889 9.714 20.0563 7.03158 18.8949 5.82312C18.1302 5.02735 16.8697 5.02735 16.105 5.82312C14.9436 7.03158 12.5111 9.714 10.3628 13.0749C8.23004 16.4116 6.29163 20.5482 6.29163 24.6389C6.29163 30.9387 11.2882 36.0853 17.5 36.0853Z" stroke="#234FEC" stroke-width="2"/>
<path d="M17.5 30.2103C16.7339 30.2103 15.9754 30.0422 15.2676 29.7155C14.5599 29.3889 13.9168 28.9101 13.3752 28.3065C12.8335 27.7029 12.4038 26.9864 12.1107 26.1978C11.8175 25.4092 11.6666 24.5639 11.6666 23.7103" stroke="#234FEC" stroke-width="2" stroke-linecap="round"/>
</svg>
