<svg width="30" height="31" viewBox="0 0 30 31" fill="none" xmlns="http://www.w3.org/2000/svg">
<path d="M9 3.09998C8.20435 3.09998 7.44129 3.42658 6.87868 4.00794C6.31607 4.58931 6 5.3778 6 6.19998V24.8C6 25.6221 6.31607 26.4106 6.87868 26.992C7.44129 27.5734 8.20435 27.9 9 27.9H23.25C23.4489 27.9 23.6397 27.8183 23.7803 27.673C23.921 27.5276 24 27.3305 24 27.125C24 26.9194 23.921 26.7223 23.7803 26.577C23.6397 26.4316 23.4489 26.35 23.25 26.35H9C8.60218 26.35 8.22064 26.1867 7.93934 25.896C7.65804 25.6053 7.5 25.2111 7.5 24.8H22.5C22.8978 24.8 23.2794 24.6367 23.5607 24.346C23.842 24.0553 24 23.6611 24 23.25V6.19998C24 5.3778 23.6839 4.58931 23.1213 4.00794C22.5587 3.42658 21.7956 3.09998 21 3.09998H9ZM13.14 9.93393C12.9057 10.1795 12.7669 10.5055 12.75 10.85C12.75 11.0555 12.671 11.2526 12.5303 11.398C12.3897 11.5433 12.1989 11.625 12 11.625C11.8011 11.625 11.6103 11.5433 11.4697 11.398C11.329 11.2526 11.25 11.0555 11.25 10.85C11.25 10.2842 11.46 9.50303 12.06 8.85978C12.675 8.19948 13.635 7.74998 15 7.74998C16.365 7.74998 17.325 8.19793 17.94 8.85978C18.54 9.50303 18.75 10.2842 18.75 10.85C18.75 12.4713 17.655 13.2478 16.8345 13.6694C16.6409 13.7674 16.4449 13.8599 16.2465 13.9469L16.23 13.9546C16.0678 14.025 15.9077 14.1005 15.75 14.1809V15.5C15.7502 15.7055 15.6714 15.9027 15.5309 16.0482C15.3903 16.1937 15.1997 16.2755 15.0007 16.2758C14.8018 16.276 14.611 16.1945 14.4702 16.0493C14.3294 15.9041 14.2502 15.7071 14.25 15.5015V13.95C14.25 13.5656 14.442 13.2897 14.6145 13.1207C14.778 12.9626 14.9745 12.8495 15.132 12.7673C15.285 12.6867 15.459 12.6092 15.618 12.5395L15.651 12.524C15.828 12.4449 15.999 12.369 16.1655 12.2822C16.845 11.9319 17.25 11.5537 17.25 10.85C17.2331 10.5055 17.0943 10.1795 16.86 9.93393C16.575 9.62548 16.035 9.29998 15 9.29998C13.965 9.29998 13.425 9.62703 13.14 9.93393ZM15 20.15C14.7016 20.15 14.4155 20.0275 14.2045 19.8095C13.9935 19.5915 13.875 19.2958 13.875 18.9875C13.875 18.6792 13.9935 18.3835 14.2045 18.1655C14.4155 17.9475 14.7016 17.825 15 17.825C15.2984 17.825 15.5845 17.9475 15.7955 18.1655C16.0065 18.3835 16.125 18.6792 16.125 18.9875C16.125 19.2958 16.0065 19.5915 15.7955 19.8095C15.5845 20.0275 15.2984 20.15 15 20.15Z" fill="black"/>
</svg>
