<svg width="28" height="27" viewBox="0 0 28 27" fill="none" xmlns="http://www.w3.org/2000/svg">
<path d="M12.233 1.35632L13.3933 10.1514H15.075L16.2354 1.35632H12.233ZM13.2976 11.0644V12.8705H15.1707V11.0644H13.2976ZM14.2358 15.2814C14.157 15.2814 14.0781 15.2835 14 15.2848C13.933 15.2858 13.8666 15.2878 13.8001 15.2897L13.742 15.2913C13.6709 15.2937 13.6005 15.2962 13.5301 15.2996C13.4643 15.3028 13.3987 15.3054 13.3336 15.3095C13.3217 15.3102 13.3096 15.3104 13.2977 15.3111C11.1386 15.4392 9.19786 15.9942 7.76221 16.6789C6.9419 17.0702 6.28729 17.5056 5.86018 17.905C5.43318 18.3045 5.27064 18.6619 5.27064 18.818C5.27064 18.9741 5.39249 19.2034 5.80035 19.4822C6.20832 19.7609 6.85872 20.0451 7.68198 20.2831C9.3284 20.759 11.6603 21.0658 14.2359 21.0658C16.8115 21.0658 19.145 20.7589 20.7916 20.283C21.6148 20.0451 22.2652 19.7609 22.6731 19.4821C23.0811 19.2033 23.2029 18.9741 23.2029 18.818C23.2029 18.6619 23.0404 18.3045 22.6134 17.905C22.1864 17.5056 21.5316 17.0702 20.7113 16.6789C19.2758 15.9943 17.3336 15.4393 15.1742 15.3112C15.1622 15.3104 15.1503 15.3103 15.1382 15.3096C15.0732 15.3055 15.0075 15.3028 14.9417 15.2996C14.8713 15.2963 14.8009 15.2938 14.7298 15.2914C14.7223 15.2911 14.715 15.29 14.7076 15.2897C14.695 15.2893 14.6825 15.2901 14.67 15.2897C14.6046 15.2878 14.5394 15.2858 14.4734 15.2848C14.3948 15.2835 14.3154 15.2815 14.2358 15.2815V15.2814ZM14.2358 16.267C15.679 16.267 16.9842 16.4996 17.8828 16.8487C18.3322 17.0232 18.6769 17.2285 18.8843 17.4189C19.0916 17.6093 19.1526 17.7561 19.1526 17.8819C19.1526 18.0077 19.0916 18.1546 18.8842 18.345C18.7978 18.4244 18.6863 18.506 18.5545 18.5873C18.2836 17.7538 16.4533 17.109 14.2341 17.109C12.0163 17.109 10.188 17.7529 9.91547 18.5855C9.78444 18.5047 9.67343 18.424 9.58735 18.345C9.38008 18.1546 9.31905 18.0077 9.31905 17.882C9.31905 17.7561 9.38003 17.6092 9.58735 17.4188C9.79472 17.2284 10.1395 17.0232 10.5888 16.8486C11.4875 16.4995 12.7926 16.267 14.2358 16.267V16.267ZM4.25198 18.8921C3.04366 19.6151 2.34131 20.4774 2.34131 21.4036C2.34131 23.9547 7.66607 26.0228 14.2342 26.0228C20.8022 26.0228 26.127 23.9546 26.127 21.4035C26.127 20.4785 25.4266 19.6177 24.2215 18.8953C24.1881 19.4607 23.7918 19.9257 23.2644 20.2862C22.7132 20.6629 21.9754 20.9694 21.0838 21.2272C19.3004 21.7427 16.8943 22.0512 14.2359 22.0512C11.5776 22.0512 9.1715 21.7427 7.38798 21.2272C6.4963 20.9695 5.76026 20.663 5.20907 20.2863C4.68068 19.9252 4.28403 19.4589 4.25204 18.8921L4.25198 18.8921Z" fill="black"/>
</svg>
