<svg width="147" height="40" viewBox="0 0 147 40" fill="none" xmlns="http://www.w3.org/2000/svg">
<path d="M40.439 27.9887V32.7647H39.991V27.1647H40.439L43.479 31.9407V27.1647H43.927V32.7647H43.479L40.439 27.9887ZM48.5142 31.2847C48.5142 31.8233 48.3488 32.2207 48.0182 32.4767C47.6928 32.7273 47.3008 32.8527 46.8422 32.8527C46.5542 32.8527 46.2822 32.802 46.0262 32.7007C45.7702 32.594 45.5595 32.4233 45.3942 32.1887C45.2342 31.954 45.1542 31.6527 45.1542 31.2847V28.7087C45.1542 28.1593 45.3035 27.7433 45.6022 27.4607C45.9062 27.178 46.3222 27.0367 46.8502 27.0367C47.3782 27.0367 47.7862 27.186 48.0742 27.4847C48.3675 27.7833 48.5142 28.194 48.5142 28.7167V31.2847ZM48.0742 28.6367C48.0742 28.2473 47.9595 27.954 47.7302 27.7567C47.5062 27.5593 47.2075 27.4607 46.8342 27.4607C46.4608 27.4607 46.1622 27.5593 45.9382 27.7567C45.7142 27.954 45.6022 28.2473 45.6022 28.6367V31.2767C45.6022 31.6553 45.7168 31.9433 45.9462 32.1407C46.1808 32.3327 46.4768 32.4287 46.8342 32.4287C47.1968 32.4287 47.4928 32.3353 47.7222 32.1487C47.9568 31.9567 48.0742 31.6633 48.0742 31.2687V28.6367ZM52.3258 27.9727L51.5338 32.7647H50.8538L49.5338 27.1647H50.0138L51.1578 32.2127L52.0138 27.1647H52.6378L53.4938 32.2127L54.6218 27.1647H55.1018L53.7978 32.7647H53.1178L52.3258 27.9727ZM58.3735 27.1647H61.0455V27.5807H58.8215V29.4607H60.3495L60.1975 29.9007H58.8215V32.3647H61.0295V32.7647H58.3735V27.1647ZM62.1723 27.1647H62.6523L64.0843 32.2127L65.5163 27.1647H65.9963L64.3963 32.7647H63.7803L62.1723 27.1647ZM66.9632 27.1647H69.6352V27.5807H67.4112V29.4607H68.9392L68.7872 29.9007H67.4112V32.3647H69.6192V32.7647H66.9632V27.1647ZM73.106 30.7807C73.01 30.7967 72.9033 30.8047 72.786 30.8047H71.21V32.7647H70.762V27.1647H72.73C73.2366 27.1647 73.6126 27.3193 73.858 27.6287C74.1086 27.938 74.234 28.354 74.234 28.8767C74.234 29.2767 74.1886 29.6313 74.098 29.9407C74.0126 30.25 73.8233 30.4847 73.53 30.6447L74.242 32.7647H73.786L73.106 30.7807ZM72.794 30.3647C73.0926 30.3647 73.314 30.2847 73.458 30.1247C73.6073 29.9647 73.698 29.7833 73.73 29.5807C73.7673 29.378 73.786 29.1513 73.786 28.9007C73.786 28.4633 73.6953 28.1353 73.514 27.9167C73.3326 27.698 73.082 27.5887 72.762 27.5887H71.21V30.3647H72.794ZM77.5247 32.5247C77.6634 32.4713 77.7781 32.3753 77.8687 32.2367C77.9647 32.0927 78.0127 31.8633 78.0127 31.5487V30.4127C77.8687 30.5407 77.6767 30.6393 77.4367 30.7087C77.1967 30.7727 76.9674 30.8047 76.7487 30.8047C76.1834 30.8047 75.7354 30.666 75.4047 30.3887C75.0794 30.106 74.9167 29.69 74.9167 29.1407V27.1647H75.3647V29.2207C75.3647 29.594 75.4927 29.8793 75.7487 30.0767C76.0047 30.2687 76.3381 30.3647 76.7487 30.3647C77.0634 30.3647 77.3381 30.298 77.5727 30.1647C77.8074 30.0313 77.9541 29.8313 78.0127 29.5647V27.1647H78.4687V31.5167C78.4687 31.906 78.3941 32.2127 78.2447 32.4367C78.1007 32.6553 77.8954 32.7833 77.6287 32.8207L77.5247 32.5247ZM82.537 31.2847C82.537 31.8233 82.3716 32.2207 82.041 32.4767C81.7156 32.7273 81.3236 32.8527 80.865 32.8527C80.577 32.8527 80.305 32.802 80.049 32.7007C79.793 32.594 79.5823 32.4233 79.417 32.1887C79.257 31.954 79.177 31.6527 79.177 31.2847V28.7087C79.177 28.1593 79.3263 27.7433 79.625 27.4607C79.929 27.178 80.345 27.0367 80.873 27.0367C81.401 27.0367 81.809 27.186 82.097 27.4847C82.3903 27.7833 82.537 28.194 82.537 28.7167V31.2847ZM82.097 28.6367C82.097 28.2473 81.9823 27.954 81.753 27.7567C81.529 27.5593 81.2303 27.4607 80.857 27.4607C80.4836 27.4607 80.185 27.5593 79.961 27.7567C79.737 27.954 79.625 28.2473 79.625 28.6367V31.2767C79.625 31.6553 79.7396 31.9433 79.969 32.1407C80.2036 32.3327 80.4996 32.4287 80.857 32.4287C81.2196 32.4287 81.5156 32.3353 81.745 32.1487C81.9796 31.9567 82.097 31.6633 82.097 31.2687V28.6367ZM84.2156 27.9887V32.7647H83.7676V27.1647H84.2156L87.2556 31.9407V27.1647H87.7036V32.7647H87.2556L84.2156 27.9887ZM89.0507 27.1647H91.7227V27.5807H89.4987V29.4607H91.0267L90.8747 29.9007H89.4987V32.3647H91.7067V32.7647H89.0507V27.1647ZM97.948 32.5807C97.4734 32.7567 97.0307 32.8447 96.62 32.8447C96.156 32.8447 95.78 32.722 95.492 32.4767C95.204 32.2313 95.06 31.8393 95.06 31.3007V28.7327C95.06 28.3273 95.116 28.0207 95.228 27.8127C95.3454 27.6047 95.5214 27.4287 95.756 27.2847C95.9907 27.1513 96.2787 27.0847 96.62 27.0847C97.036 27.0847 97.412 27.1727 97.748 27.3487L97.62 27.6527C97.316 27.5407 97.028 27.4847 96.756 27.4847C96.4307 27.4847 96.14 27.5647 95.884 27.7247C95.6334 27.8847 95.508 28.1967 95.508 28.6607V31.2847C95.508 31.6527 95.604 31.938 95.796 32.1407C95.988 32.338 96.276 32.4367 96.66 32.4367C96.996 32.4367 97.3934 32.3593 97.852 32.2047L97.948 32.5807ZM100.917 30.8047H99.0931L98.4691 32.7647H97.9971L99.7891 27.1647H100.213L102.037 32.7647H101.557L100.917 30.8047ZM99.2211 30.3647H100.797L99.9971 27.8607L99.2211 30.3647ZM103.272 27.9887V32.7647H102.824V27.1647H103.272L106.312 31.9407V27.1647H106.76V32.7647H106.312L103.272 27.9887ZM110.414 27.1647H112.382C112.888 27.1647 113.264 27.3193 113.51 27.6287C113.76 27.938 113.886 28.354 113.886 28.8767C113.886 29.2127 113.859 29.5167 113.806 29.7887C113.752 30.0553 113.619 30.2927 113.406 30.5007C113.192 30.7033 112.87 30.8047 112.438 30.8047H110.862V32.7647H110.414V27.1647ZM112.446 30.3647C112.744 30.3647 112.966 30.2847 113.11 30.1247C113.259 29.9647 113.35 29.7833 113.382 29.5807C113.419 29.378 113.438 29.1513 113.438 28.9007C113.438 28.4633 113.347 28.1353 113.166 27.9167C112.984 27.698 112.734 27.5887 112.414 27.5887H110.862V30.3647H112.446ZM114.853 27.1647H115.301V32.3647H117.741V32.7647H114.853V27.1647ZM120.848 30.8047H119.024L118.4 32.7647H117.928L119.72 27.1647H120.144L121.968 32.7647H121.488L120.848 30.8047ZM119.152 30.3647H120.728L119.928 27.8607L119.152 30.3647ZM123.203 27.9887V32.7647H122.755V27.1647H123.203L126.243 31.9407V27.1647H126.691V32.7647H126.243L123.203 27.9887ZM128.774 27.5647H127.414V27.1647H130.63V27.5647H129.222V32.7647H128.774V27.5647Z" fill="black"/>
<path d="M44.732 12.5029C44.732 11.8229 44.6387 11.3229 44.452 11.0029C44.2654 10.6696 43.892 10.5029 43.332 10.5029H43.132V9.90294H48.632C50.0054 9.90294 51.2454 10.1763 52.352 10.7229C53.472 11.2563 54.032 12.3229 54.032 13.9229C54.032 14.9629 53.7387 15.7696 53.152 16.3429C52.5787 16.9163 51.932 17.2963 51.212 17.4829C50.492 17.6696 49.832 17.7629 49.232 17.7629H47.332V23.1029H44.732V12.5029ZM48.532 16.9629C49.3187 16.9629 49.9654 16.7229 50.472 16.2429C50.9787 15.7629 51.232 14.9563 51.232 13.8229C51.232 12.7029 50.9787 11.9029 50.472 11.4229C49.9787 10.9429 49.3654 10.7029 48.632 10.7029C48.2454 10.7029 47.9454 10.7296 47.732 10.7829L47.332 10.8429V16.9629H48.532ZM58.275 12.5029C58.275 11.8229 58.1817 11.3229 57.995 11.0029C57.8083 10.6696 57.435 10.5029 56.875 10.5029H56.675V9.90294H59.075C59.555 9.90294 59.9217 9.98294 60.175 10.1429C60.4283 10.3029 60.6083 10.5696 60.715 10.9429C60.8217 11.3029 60.875 11.8229 60.875 12.5029L60.875 22.2029H67.775V23.1029H58.275L58.275 12.5029ZM82.3413 23.1829C81.5013 23.1829 80.7412 23.0096 80.0612 22.6629C79.3813 22.3029 78.8279 21.6096 78.4013 20.5829L77.9413 19.4629H72.6213L70.9813 23.1029H69.9413L75.8413 9.90294H76.7413L81.2213 20.5829C81.7279 21.8229 82.4213 22.4896 83.3013 22.5829V23.0829C83.0613 23.1496 82.7413 23.1829 82.3413 23.1829ZM73.0413 18.5629H77.5613L75.3613 13.3429L73.0413 18.5629ZM87.6905 13.2029V23.1029H86.6905V12.3029C86.6905 11.7429 86.5505 11.3029 86.2705 10.9829C86.0038 10.6629 85.5438 10.5029 84.8905 10.5029H84.7905V9.90294H86.1905C86.9371 9.90294 87.5438 10.0029 88.0105 10.2029C88.4905 10.3896 88.8905 10.6896 89.2105 11.1029L96.0905 19.1029V9.90294H97.0905V23.1629H96.1705L87.6905 13.2029ZM105.218 10.8029H103.798C103.051 10.8029 102.478 10.9896 102.078 11.3629C101.691 11.7363 101.498 12.3496 101.498 13.2029H100.898V11.5029C100.898 10.4363 101.465 9.90294 102.598 9.90294H111.998V10.8029H107.818V23.1029H105.218V10.8029ZM119.994 17.8229L116.454 12.5029C116.054 11.9296 115.614 11.4296 115.134 11.0029C114.667 10.5763 114.221 10.3429 113.794 10.3029V9.90294H115.974C116.654 9.90294 117.267 10.1163 117.814 10.5429C118.374 10.9696 118.847 11.4896 119.234 12.1029L121.954 16.2029L125.834 9.90294H127.134L122.594 17.2829V23.1029H119.994V17.8229Z" fill="#093923"/>
<path d="M22.4246 28.2588C25.2712 25.0649 29.5017 23.331 35 23.1043L34.9224 21.1084C31.6308 21.2441 28.7433 21.8902 26.275 23.0312C26.7561 21.7204 27.1242 20.0628 27.0869 18.0898C26.9865 12.7173 23.9859 7.10314 18.1682 1.40476L17.5 0.75L16.8318 1.40476C11.0141 7.10376 8.01354 12.7173 7.9131 18.0904C7.87641 20.0628 8.24389 21.7204 8.72504 23.0312C6.25674 21.8902 3.36925 21.2441 0.0775853 21.1084L0 23.1043C5.48811 23.3304 9.7138 25.0593 12.5604 28.2414C16.7374 32.9128 16.5299 39.2306 16.5275 39.2932H16.5329C16.5341 39.3359 16.5353 39.3687 16.5359 39.3824L17.5006 39.3371L18.4653 39.3824C18.4653 39.3687 18.4671 39.3353 18.4683 39.2919H18.4737C18.4737 39.2863 18.4719 39.2318 18.4713 39.1395C18.4713 39.0949 18.4713 39.0441 18.4713 38.9884C18.4833 37.6751 18.7696 32.3596 22.4258 28.2582L22.4246 28.2588ZM12.0883 25.094C11.7731 24.7254 9.75831 22.2005 9.85334 18.0737C9.95919 13.4718 12.5309 8.57868 17.5 3.51959C22.4685 8.57868 25.0402 13.4718 25.1467 18.0737C25.2417 22.2055 23.2215 24.7316 22.9129 25.0934C22.6543 25.3003 22.4035 25.5165 22.1587 25.7388C22.6441 22.3771 22.1659 18.0706 18.1219 14.5967L17.5006 14.0633L16.8799 14.5967C12.8347 18.0706 12.3571 22.3771 12.8419 25.7388C12.5971 25.5165 12.3475 25.3009 12.0889 25.0946L12.0883 25.094ZM16.1275 29.9257C15.7937 29.2574 14.9932 27.4777 14.7063 25.252C14.2673 21.8468 15.2061 18.9756 17.5 16.7035C19.7782 18.9614 20.7201 21.8121 20.3009 25.19C20.0212 27.4442 19.1967 29.2735 18.8641 29.94C18.2734 31.0185 17.8302 32.1 17.5 33.1265C17.168 32.0957 16.7223 31.0092 16.1275 29.9257Z" fill="#093923"/>
</svg>
