<svg width="29" height="33" viewBox="0 0 29 33" fill="none" xmlns="http://www.w3.org/2000/svg">
<path d="M27.4309 5.14212C27.4182 4.88983 27.3264 4.65173 27.1728 4.47304C27.0193 4.29434 26.8147 4.18748 26.5979 4.17274C20.8642 3.78602 16.2605 5.81501 14.282 9.61517C12.9749 12.1275 12.9771 15.1788 14.2643 18.0895C13.5317 19.1044 12.9962 20.2917 12.6947 21.5699L10.8924 19.4649C11.7586 17.3599 11.7254 15.1659 10.7816 13.3431C9.31939 10.5343 5.94411 9.02864 1.75354 9.31481C1.53674 9.32955 1.33214 9.43641 1.17858 9.61511C1.02502 9.79381 0.933187 10.0319 0.920526 10.2842C0.673501 15.1607 1.96845 19.0885 4.3822 20.7901C5.17874 21.3564 6.09405 21.6561 7.02748 21.6563C7.93349 21.6433 8.82542 21.3935 9.63731 20.9254L12.4066 24.1481V27.8438C12.4066 28.1173 12.5 28.3796 12.6662 28.573C12.8324 28.7664 13.0578 28.8751 13.2928 28.8751C13.5279 28.8751 13.7533 28.7664 13.9195 28.573C14.0857 28.3796 14.179 28.1173 14.179 27.8438V24.0424C14.1751 22.4018 14.6548 20.8092 15.5382 19.5306C16.678 20.2238 17.9421 20.5948 19.2281 20.6134C20.4714 20.6181 21.6916 20.2229 22.754 19.4713C26.0196 17.1717 27.7676 11.8143 27.4309 5.14212ZM5.29609 19.0266C3.59682 17.8291 2.6353 14.9944 2.65857 11.3438C5.79568 11.3129 8.23159 12.4356 9.26067 14.4131C9.79793 15.4443 9.88544 16.647 9.53318 17.8858L6.82919 14.7392C6.66165 14.554 6.43855 14.4522 6.20747 14.4557C5.97638 14.4591 5.7556 14.5675 5.59218 14.7576C5.42877 14.9478 5.33565 15.2047 5.3327 15.4736C5.32974 15.7425 5.41717 16.0021 5.57634 16.1971L8.28033 19.3437C7.21579 19.7536 6.18338 19.6518 5.29609 19.0266ZM21.8357 17.7092C20.3513 18.7546 18.6066 18.8345 16.8343 17.967L22.7817 11.0447C22.9409 10.8498 23.0283 10.5901 23.0254 10.3212C23.0224 10.0523 22.9293 9.7954 22.7659 9.60524C22.6025 9.41507 22.3817 9.30672 22.1506 9.30328C21.9195 9.29983 21.6964 9.40157 21.5289 9.58681L15.5803 16.5C14.8315 14.4375 14.8991 12.406 15.8019 10.6799C17.346 7.71509 21.0082 6.06251 25.6973 6.19013C25.8036 11.6454 24.3857 15.9122 21.8357 17.7092Z" fill="black"/>
</svg>
