<svg width="23" height="21" viewBox="0 0 23 21" fill="none" xmlns="http://www.w3.org/2000/svg">
<path d="M14.375 16.4062H19.4063V17.7188H14.375V16.4062ZM15.8125 19.0312H17.9688V20.3438H15.8125V19.0312ZM19.4063 15.0938H17.9688C17.9688 14.3719 18.2563 13.7813 18.8313 13.2563L19.1906 12.9281C19.7656 12.4031 20.125 11.6156 20.125 10.8281C20.125 9.1875 18.6875 7.875 16.8906 7.875C15.0938 7.875 13.6563 9.1875 13.6563 10.8281C13.6563 11.6156 14.0156 12.3375 14.5906 12.9281L14.95 13.2563C15.525 13.7813 15.8125 14.3719 15.8125 15.0938H14.375C14.375 14.7656 14.2313 14.4375 13.9438 14.175L13.5844 13.8469C12.7219 13.0594 12.2188 11.9437 12.2188 10.8281C12.2188 8.46563 14.3031 6.5625 16.8906 6.5625C19.4781 6.5625 21.5625 8.46563 21.5625 10.8281C21.5625 11.9437 21.0594 13.0594 20.1969 13.8469L19.8375 14.175C19.55 14.4375 19.4063 14.7656 19.4063 15.0938ZM4.3125 14.4375H10.0625V15.75H4.3125V14.4375Z" fill="black"/>
<path d="M8.625 13.125C9.02195 13.125 9.34375 12.8312 9.34375 12.4688C9.34375 12.1063 9.02195 11.8125 8.625 11.8125C8.22805 11.8125 7.90625 12.1063 7.90625 12.4688C7.90625 12.8312 8.22805 13.125 8.625 13.125Z" fill="black"/>
<path d="M4.3125 11.8125H6.46875V13.125H4.3125V11.8125ZM4.3125 9.1875H9.34375V10.5H4.3125V9.1875ZM7.1875 6.5625H12.2188V7.875H7.1875V6.5625Z" fill="black"/>
<path d="M5.03125 7.875C5.4282 7.875 5.75 7.58119 5.75 7.21875C5.75 6.85631 5.4282 6.5625 5.03125 6.5625C4.6343 6.5625 4.3125 6.85631 4.3125 7.21875C4.3125 7.58119 4.6343 7.875 5.03125 7.875Z" fill="black"/>
<path d="M11.5 3.9375H14.375V5.25H11.5V3.9375Z" fill="black"/>
<path d="M9.34375 5.25C9.7407 5.25 10.0625 4.95619 10.0625 4.59375C10.0625 4.23131 9.7407 3.9375 9.34375 3.9375C8.9468 3.9375 8.625 4.23131 8.625 4.59375C8.625 4.95619 8.9468 5.25 9.34375 5.25Z" fill="black"/>
<path d="M4.3125 3.9375H7.1875V5.25H4.3125V3.9375Z" fill="black"/>
<path d="M12.9375 18.375H2.875V2.625H15.8125V5.25H17.25V2.625C17.25 1.90312 16.6031 1.3125 15.8125 1.3125H2.875C2.08437 1.3125 1.4375 1.90312 1.4375 2.625V18.375C1.4375 19.0969 2.08437 19.6875 2.875 19.6875H12.9375V18.375Z" fill="black"/>
</svg>
