<svg width="36" height="15" viewBox="0 0 36 15" fill="none" xmlns="http://www.w3.org/2000/svg">
<path d="M1 13.908L3.98769 5.45402C4.88943 2.90244 5.3403 1.62665 5.99613 1.25838C6.6043 0.916869 7.34645 0.916869 7.95462 1.25838C8.61046 1.62665 9.06133 2.90244 9.96306 5.45402L10.2394 6.23593C10.9126 8.14071 11.2491 9.09311 11.6745 9.44565C12.4147 10.0592 13.4868 10.0592 14.227 9.44565C14.6524 9.09311 14.989 8.14071 15.6621 6.23593L16.0321 5.18914C16.5274 3.7876 16.775 3.08683 17.0031 2.81216C17.8599 1.7804 19.4693 1.86766 20.2095 2.986C20.4066 3.28371 20.577 4.00715 20.9179 5.45402V5.45402C21.2588 6.90089 21.4293 7.62433 21.6263 7.92204C22.3665 9.04038 23.976 9.12763 24.8327 8.09587C25.0608 7.82121 25.3085 7.12044 25.8038 5.7189L26.1737 4.67211C26.8469 2.76732 27.1835 1.81493 27.6088 1.46238C28.3491 0.848868 29.4211 0.848868 30.1613 1.46238C30.5867 1.81493 30.9233 2.76732 31.5964 4.67211L34.8605 13.908" stroke="#776462" stroke-width="2" stroke-linejoin="round"/>
</svg>
